<svg xmlns="http://www.w3.org/2000/svg" xmlns:svg="http://www.w3.org/2000/svg" zoomAndPan="magnify" preserveAspectRatio="xMidYMid meet" version="1.2" id="svg14" viewBox="33.3 152.43 306.96 75.62">
  <defs id="defs1">
    <clipPath id="5794b60b41">
      <path d="M 33.300781 153.808594 L 73 153.808594 L 73 211.558594 L 33.300781 211.558594 Z M 33.300781 153.808594 " id="path1"/>
    </clipPath>
  </defs>
  <g id="17c3ee72a0">
    <g style="fill:#fb5315;fill-opacity:1;" id="g3">
      <g transform="translate(82.706835, 211.508101)" id="g2">
        <path style="stroke:none" d="M 26.703125 -47.296875 C 25.398438 -47.296875 24.296875 -46.84375 23.390625 -45.9375 C 22.484375 -44.976562 22.03125 -43.847656 22.03125 -42.546875 L 22.03125 -37.890625 L 30.765625 -37.890625 L 30.765625 -26.015625 L 22.03125 -26.015625 L 22.03125 0 L 10.171875 0 L 10.171875 -26.109375 L 2.546875 -26.109375 L 2.546875 -37.890625 L 10.171875 -37.890625 L 10.171875 -47.296875 C 10.171875 -50.566406 11.328125 -53.332031 13.640625 -55.59375 C 15.960938 -57.914062 18.757812 -59.078125 22.03125 -59.078125 L 30.765625 -59.078125 L 30.765625 -47.296875 Z M 26.703125 -47.296875 " id="path2"/>
      </g>
    </g>
    <g style="fill:#fb5315;fill-opacity:1;" id="g5">
      <g transform="translate(113.216667, 211.508101)" id="g4">
        <path style="stroke:none" d="M 33.90625 -43.8125 L 45.765625 -43.8125 L 45.765625 0 L 33.90625 0 L 33.90625 -4.921875 C 31.46875 -1.753906 27.789062 -0.171875 22.875 -0.171875 C 16.894531 -0.109375 11.753906 -2.195312 7.453125 -6.4375 C 3.160156 -10.675781 0.988281 -15.816406 0.9375 -21.859375 C 0.875 -27.847656 2.960938 -32.992188 7.203125 -37.296875 C 11.441406 -41.585938 16.582031 -43.757812 22.625 -43.8125 C 27.601562 -43.8125 31.363281 -42.203125 33.90625 -38.984375 Z M 30.34375 -14.40625 C 32.425781 -16.5 33.46875 -19.039062 33.46875 -22.03125 C 33.46875 -25.082031 32.394531 -27.625 30.25 -29.65625 C 28.101562 -31.8125 25.59375 -32.832031 22.71875 -32.71875 C 19.71875 -32.71875 17.171875 -31.671875 15.078125 -29.578125 C 12.992188 -27.484375 11.953125 -24.941406 11.953125 -21.953125 C 11.953125 -19.015625 13.023438 -16.472656 15.171875 -14.328125 C 17.265625 -12.234375 19.804688 -11.1875 22.796875 -11.1875 C 25.847656 -11.300781 28.363281 -12.375 30.34375 -14.40625 Z M 30.34375 -14.40625 " id="path3"/>
      </g>
    </g>
    <g style="fill:#fb5315;fill-opacity:1;" id="g7">
      <g transform="translate(158.727243, 211.508101)" id="g6">
        <path style="stroke:none" d="M 43.640625 -43.734375 L 26.4375 1.953125 C 24.570312 6.472656 21.609375 10.0625 17.546875 12.71875 C 13.472656 15.375 9.035156 16.644531 4.234375 16.53125 L 4.234375 4.65625 C 5.984375 4.71875 7.734375 4.351562 9.484375 3.5625 C 11.972656 2.425781 13.835938 0.644531 15.078125 -1.78125 L 17.453125 -8.3125 L 2.546875 -43.734375 L 15.59375 -43.734375 L 23.46875 -24.65625 L 30.515625 -43.734375 Z M 43.640625 -43.734375 " id="path5"/>
      </g>
    </g>
    <g style="fill:#fb5315;fill-opacity:1;" id="g9">
      <g transform="translate(202.203813, 211.508101)" id="g8">
        <path style="stroke:none" d="M 33.90625 -43.8125 L 45.765625 -43.8125 L 45.765625 0 L 33.90625 0 L 33.90625 -4.921875 C 31.46875 -1.753906 27.789062 -0.171875 22.875 -0.171875 C 16.894531 -0.109375 11.753906 -2.195312 7.453125 -6.4375 C 3.160156 -10.675781 0.988281 -15.816406 0.9375 -21.859375 C 0.875 -27.847656 2.960938 -32.992188 7.203125 -37.296875 C 11.441406 -41.585938 16.582031 -43.757812 22.625 -43.8125 C 27.601562 -43.8125 31.363281 -42.203125 33.90625 -38.984375 Z M 30.34375 -14.40625 C 32.425781 -16.5 33.46875 -19.039062 33.46875 -22.03125 C 33.46875 -25.082031 32.394531 -27.625 30.25 -29.65625 C 28.101562 -31.8125 25.59375 -32.832031 22.71875 -32.71875 C 19.71875 -32.71875 17.171875 -31.671875 15.078125 -29.578125 C 12.992188 -27.484375 11.953125 -24.941406 11.953125 -21.953125 C 11.953125 -19.015625 13.023438 -16.472656 15.171875 -14.328125 C 17.265625 -12.234375 19.804688 -11.1875 22.796875 -11.1875 C 25.847656 -11.300781 28.363281 -12.375 30.34375 -14.40625 Z M 30.34375 -14.40625 " id="path7"/>
      </g>
    </g>
    <g style="fill:#fb5315;fill-opacity:1;" id="g11">
      <g transform="translate(247.714389, 211.508101)" id="g10">
        <path style="stroke:none" d="M 33.90625 -43.8125 L 45.765625 -43.8125 L 45.765625 0 L 33.90625 0 L 33.90625 -4.921875 C 31.46875 -1.753906 27.789062 -0.171875 22.875 -0.171875 C 16.894531 -0.109375 11.753906 -2.195312 7.453125 -6.4375 C 3.160156 -10.675781 0.988281 -15.816406 0.9375 -21.859375 C 0.875 -27.847656 2.960938 -32.992188 7.203125 -37.296875 C 11.441406 -41.585938 16.582031 -43.757812 22.625 -43.8125 C 27.601562 -43.8125 31.363281 -42.203125 33.90625 -38.984375 Z M 30.34375 -14.40625 C 32.425781 -16.5 33.46875 -19.039062 33.46875 -22.03125 C 33.46875 -25.082031 32.394531 -27.625 30.25 -29.65625 C 28.101562 -31.8125 25.59375 -32.832031 22.71875 -32.71875 C 19.71875 -32.71875 17.171875 -31.671875 15.078125 -29.578125 C 12.992188 -27.484375 11.953125 -24.941406 11.953125 -21.953125 C 11.953125 -19.015625 13.023438 -16.472656 15.171875 -14.328125 C 17.265625 -12.234375 19.804688 -11.1875 22.796875 -11.1875 C 25.847656 -11.300781 28.363281 -12.375 30.34375 -14.40625 Z M 30.34375 -14.40625 " id="path9"/>
      </g>
    </g>
    <g style="fill:#fb5315;fill-opacity:1;" id="g13">
      <g transform="translate(293.224964, 211.508101)" id="g12">
        <path style="stroke:none" d="M 47.03125 0 L 36.015625 0 L 36.015625 -21.53125 L 35.9375 -21.53125 L 35.9375 -21.78125 C 35.9375 -24.71875 34.890625 -27.234375 32.796875 -29.328125 C 30.703125 -31.410156 28.160156 -32.453125 25.171875 -32.453125 C 22.234375 -32.453125 19.691406 -31.378906 17.546875 -29.234375 C 15.398438 -27.085938 14.382812 -24.546875 14.5 -21.609375 L 14.5 -21.53125 L 14.40625 -21.53125 L 14.40625 0 L 2.546875 0 L 2.546875 -55.09375 L 14.40625 -55.09375 L 14.40625 -38.140625 C 17.0625 -41.304688 20.625 -43.085938 25.09375 -43.484375 C 31.300781 -43.984375 36.441406 -42.367188 40.515625 -38.640625 C 44.859375 -34.628906 47.03125 -29.007812 47.03125 -21.78125 Z M 47.03125 0 " id="path11"/>
      </g>
    </g>
    <g clip-rule="nonzero" clip-path="url(#5794b60b41)" id="g14">
      <path style=" stroke:none;fill-rule:nonzero;fill:#fb5315;fill-opacity:1;" d="m 43.402344,208.87109 c -1.640625,-1.08203 -5.320313,-4.0664 -7.089844,-7.1289 l -0.34375,-0.59375 c -2.277344,-4.29688 -2.667969,-10.78907 -1.464844,-15.27735 0.414063,-1.53906 1.09375,-2.78515 1.800782,-3.74218 16.988281,-22.97266 16.347656,-28.3125 16.347656,-28.3125 6.355468,10.88671 1.722656,19.3164 -2.761719,27.46875 -2.453125,4.45703 -4.769531,8.67187 -5.007813,12.98828 -0.128906,2.38672 0.378907,4.57812 1.5625,6.70312 0.234376,0.41797 0.460938,0.85938 0.78125,1.25 4.027344,4.92578 -2.625,7.4375 -3.824218,6.64453" id="path15"/>
      <path style="stroke:none;fill-rule:nonzero;fill:#da4711;fill-opacity:1" d="m 62.140625,171.32812 -2.671875,-5.7539 c 0.300781,2.40625 0.09766,4.79297 -0.597656,7.19922 -1.160156,3.99609 -3.460938,7.41406 -5.6875,10.72265 -1.445313,2.14844 -2.792969,4.15235 -3.699219,6.1211 -3.140625,6.82422 5.996094,12.44922 10.707031,6.59765 0.429688,-0.53515 0.835938,-1.08593 1.210938,-1.65625 4.324218,-6.53906 4.578125,-14.5664 0.738281,-23.23047 z" id="path14"/>
      <path style=" stroke:none;fill-rule:nonzero;fill:#fb5315;fill-opacity:1;" d="m 70.28125,182.12891 -2.5,-4.32813 c 0.230469,1.32031 0.371094,2.63672 0.425781,3.9375 0.207031,5.02344 -0.886719,9.79297 -3.25,14.17188 -2.828125,5.23828 -7.425781,9.75 -13.300781,13.04296 -0.01172,0.008 -0.02344,0.0117 -0.03516,0.0195 -1.1875,0.66406 -0.789063,2.46875 0.566406,2.54687 0.164062,0.008 0.328125,0.0156 0.492188,0.0195 0.109374,0.004 0.210937,0.008 0.320312,0.008 0.195312,0.004 0.386719,0.004 0.585938,0 0.105468,0 0.210937,-0.004 0.316406,-0.008 6.554687,-0.21094 12.847656,-3.70312 16.367187,-9.79687 l 0.328125,-0.56641 c 3.078125,-5.77734 3.195313,-12.96094 -0.316406,-19.04687 z" id="path13"/>
    </g>
  </g>
</svg>
